<svg width="28" height="19" viewBox="0 0 28 19" fill="none" xmlns="http://www.w3.org/2000/svg">
<path d="M6.744 0.863999L0 18H2.112L3.936 13.2H11.808L13.632 18H15.768L9.024 0.863999H6.744ZM4.56 11.544L7.848 2.976H7.944L11.184 11.544H4.56ZM22.6614 5.256C21.1734 5.256 19.9974 5.544 19.0854 6.12C18.0774 6.744 17.4294 7.728 17.1654 9.024L19.0614 9.168C19.2534 8.376 19.6614 7.776 20.3094 7.392C20.8854 7.008 21.6294 6.84 22.5414 6.84C24.7014 6.84 25.7814 7.872 25.7814 9.96V10.608L22.8054 10.656C20.9334 10.68 19.4934 11.04 18.4854 11.712C17.3334 12.432 16.7814 13.488 16.7814 14.904C16.7814 15.912 17.1654 16.752 17.9334 17.4C18.6774 18.024 19.6614 18.336 20.9094 18.336C22.0614 18.336 23.0934 18.072 24.0054 17.568C24.7734 17.136 25.4214 16.584 25.9014 15.912V18H27.7014V10.032C27.7014 8.592 27.3174 7.464 26.5974 6.648C25.7334 5.712 24.4374 5.256 22.6614 5.256ZM25.7814 12.048V13.104C25.7814 14.064 25.3254 14.928 24.4374 15.672C23.5254 16.44 22.4934 16.824 21.3174 16.824C20.5494 16.824 19.9254 16.632 19.4454 16.272C18.9654 15.888 18.7494 15.432 18.7494 14.856C18.7494 13.056 20.1414 12.144 22.9254 12.096L25.7814 12.048Z" fill="#B4B8BF"/>
</svg>
