<?xml version="1.0" standalone="no"?><!DOCTYPE svg PUBLIC "-//W3C//DTD SVG 1.1//EN" "http://www.w3.org/Graphics/SVG/1.1/DTD/svg11.dtd"><svg class="icon" width="200px" height="200.00px" viewBox="0 0 1024 1024" version="1.1" xmlns="http://www.w3.org/2000/svg"><path fill="#333333" d="M456.92736 620.76992a28.95872 28.95872 0 0 1-20.62704-8.54448l-24.50896-24.50896c-32.42176-32.41056-50.27904-75.516-50.27904-121.36768s17.85056-88.95823999 50.27344-121.38L610.728 146.03104c32.37024-32.36576 75.47008-50.1872 121.3744-50.1872 45.9088 0 89.00976 17.82144 121.38560001 50.1872l24.49215999 24.50784c32.42176 32.41728 50.27904 75.52159999 50.27904 121.38112 0 45.85168001-17.85168 88.95712-50.27904 121.37440001l-76.81856 76.81743999a28.98784001 28.98784001 0 0 1-20.63263999 8.54447999 29.01584 29.01584 0 0 1-20.63824001-8.54447999 29.22864 29.22864 0 0 1 0.00672-41.26527999l76.81744001-76.81744001a113.32272 113.32272 0 0 0 33.17887999-80.13264 112.5432 112.5432 0 0 0-33.17887999-80.08672001l-24.49776001-24.50895998c-21.37183999-21.36624-49.81984-33.12736-80.12032-33.12736001s-58.74400001 11.76672-80.11584 33.12736001L453.04992001 386.22736c-21.39424 21.39536-33.17888 49.84336001-33.17888002 80.10912s11.78464 58.71488 33.17888002 80.11584l24.50895998 24.49775999a29.21072 29.21072 0 0 1 0.00560002 41.26976001 28.98112 28.98112 0 0 1-20.62032001 8.54448h-0.0168z"  /><path fill="#333333" d="M291.90208 928.26591999c-45.84607999 0-88.95152-17.85728-121.38000001-50.28463999l-24.50335999-24.49776c-32.42176-32.41616-50.27904-75.52159999-50.27904-121.36879999 0-45.8528 17.85728-88.95712 50.27904-121.37440001l87.2256-87.2424a29.00464 29.00464 0 0 1 20.63264-8.53888 29.01584 29.01584 0 0 1 20.63824 8.54447999 28.98784001 28.98784001 0 0 1 8.54560001 20.63152001 28.97552 28.97552 0 0 1-8.54560001 20.63264l-87.2312 87.2368a113.32272 113.32272 0 0 0 0.0056 160.23728l24.49776 24.49104a112.5264 112.5264 0 0 0 80.10912 33.17999999 112.57792 112.57792 0 0 0 80.10912-33.17999999l198.93776-198.92544c44.1616-44.17279999 44.1672-116.05327999 0-160.23616l-24.51456-24.50336a29.22304 29.22304 0 0 1 0.00671999-41.26527999 28.98784001 28.98784001 0 0 1 20.63152001-8.54448001c7.79296 0 15.12223999 3.03408 20.63264 8.55008l24.51456 24.50896001c66.9144 66.9312 66.9144 175.8344-0.0056 242.75999999L413.27648 878.00928c-32.42848 32.40496001-75.52720001 50.25664001-121.3744 50.25663999z"  /></svg>