<svg width="20" height="20" viewBox="0 0 20 20" fill="none" xmlns="http://www.w3.org/2000/svg">
<path fill-rule="evenodd" clip-rule="evenodd" d="M7.08332 14.5834V10.8334H10.4167H11.0417C12.075 10.8334 12.9167 11.6742 12.9167 12.7084C12.9167 13.7425 12.075 14.5834 11.0417 14.5834H7.08332ZM7.08332 5.41671H10.4167C11.3358 5.41671 12.0833 6.16421 12.0833 7.08338C12.0833 8.00254 11.3358 8.75004 10.4167 8.75004H7.08332V5.41671ZM14.1667 7.08337C14.1667 5.01254 12.4875 3.33337 10.4167 3.33337H5V8.75004V10.8334V16.6667H11.0417C13.2275 16.6667 15 14.895 15 12.7084C15 11.3609 14.3233 10.1742 13.2958 9.46004C13.8317 8.81087 14.1667 7.99004 14.1667 7.08337Z" fill="#2354F4"/>
</svg>
