<svg width="20" height="20" viewBox="0 0 20 20" fill="none" xmlns="http://www.w3.org/2000/svg">
  <path fill-rule="evenodd" clip-rule="evenodd" d="M9.16675 12.5H5.83342C4.45841 12.5 3.33341 11.375 3.33341 10C3.33341 8.62501 4.45841 7.50001 5.83342 7.50001H9.16675V5.83334H5.83342C3.53341 5.83334 1.66675 7.70001 1.66675 10C1.66675 12.3 3.53341 14.1667 5.83342 14.1667H9.16675V12.5ZM14.1667 5.83334H10.8334V7.50001H14.1667C15.5417 7.50001 16.6667 8.62501 16.6667 10C16.6667 11.375 15.5417 12.5 14.1667 12.5H10.8334V14.1667H14.1667C16.4667 14.1667 18.3334 12.3 18.3334 10C18.3334 7.70001 16.4667 5.83334 14.1667 5.83334ZM13.3334 9.16668H6.66675V10.8333H13.3334V9.16668Z" fill="#33383E"/>
</svg>
