<svg width="20" height="24" viewBox="0 0 20 24" fill="none" xmlns="http://www.w3.org/2000/svg">
<rect width="20" height="24" rx="4" fill="white"/>
<path d="M9.16683 17.0002C9.16683 17.9168 8.41683 18.6668 7.50016 18.6668C6.5835 18.6668 5.8335 17.9168 5.8335 17.0002C5.8335 16.0835 6.5835 15.3335 7.50016 15.3335C8.41683 15.3335 9.16683 16.0835 9.16683 17.0002ZM7.50016 10.3335C6.5835 10.3335 5.8335 11.0835 5.8335 12.0002C5.8335 12.9168 6.5835 13.6668 7.50016 13.6668C8.41683 13.6668 9.16683 12.9168 9.16683 12.0002C9.16683 11.0835 8.41683 10.3335 7.50016 10.3335ZM7.50016 5.3335C6.5835 5.3335 5.8335 6.0835 5.8335 7.00016C5.8335 7.91683 6.5835 8.66683 7.50016 8.66683C8.41683 8.66683 9.16683 7.91683 9.16683 7.00016C9.16683 6.0835 8.41683 5.3335 7.50016 5.3335ZM12.5002 8.66683C13.4168 8.66683 14.1668 7.91683 14.1668 7.00016C14.1668 6.0835 13.4168 5.3335 12.5002 5.3335C11.5835 5.3335 10.8335 6.0835 10.8335 7.00016C10.8335 7.91683 11.5835 8.66683 12.5002 8.66683ZM12.5002 10.3335C11.5835 10.3335 10.8335 11.0835 10.8335 12.0002C10.8335 12.9168 11.5835 13.6668 12.5002 13.6668C13.4168 13.6668 14.1668 12.9168 14.1668 12.0002C14.1668 11.0835 13.4168 10.3335 12.5002 10.3335ZM12.5002 15.3335C11.5835 15.3335 10.8335 16.0835 10.8335 17.0002C10.8335 17.9168 11.5835 18.6668 12.5002 18.6668C13.4168 18.6668 14.1668 17.9168 14.1668 17.0002C14.1668 16.0835 13.4168 15.3335 12.5002 15.3335Z" fill="#B4B8BF"/>
</svg>
