<?xml version="1.0" standalone="no"?><!DOCTYPE svg PUBLIC "-//W3C//DTD SVG 1.1//EN" "http://www.w3.org/Graphics/SVG/1.1/DTD/svg11.dtd"><svg t="1618216350045" class="icon" viewBox="0 0 1024 1024" version="1.1" xmlns="http://www.w3.org/2000/svg" p-id="4167" xmlns:xlink="http://www.w3.org/1999/xlink" width="200" height="200"><defs><style type="text/css"></style></defs><path d="M896 128c35.3456 0 64 28.6544 64 64v640c0 35.3456-28.6544 64-64 64H128c-35.3456 0-64-28.6544-64-64V192c0-35.3456 28.6544-64 64-64h768z m0 48H128c-8.8368 0-16 7.1632-16 16v640c0 8.8368 7.1632 16 16 16h768c8.8368 0 16-7.1632 16-16V192c0-8.8368-7.1632-16-16-16z m-232 80c30.7088 0 55.4992 19.4096 55.992 50.2624L720 307.2v310.4c0 53.0192-42.9808 96-96 96s-96-42.9808-96-96 42.9808-96 96-96c17.4864 0 33.88 4.6752 48 12.8432v-118.1904l-256 53.8944V681.6c0 53.0192-42.9808 96-96 96s-96-42.9808-96-96 42.9808-96 96-96c17.4864 0 33.88 4.6752 48 12.8432V371.2c0-15.4048 6.2592-28.7536 17.3536-38.6992 8.6-7.7088 19.5488-12.984 32.3552-16.4624l0.272-0.072 0.272-0.0672 240-59.2A24 24 0 0 1 664 256zM320 633.6c-26.5104 0-48 21.4896-48 48 0 26.5104 21.4896 48 48 48 26.5104 0 48-21.4896 48-48 0-26.5104-21.4896-48-48-48z m304-64c-26.5104 0-48 21.4896-48 48 0 26.5104 21.4896 48 48 48 26.5104 0 48-21.4896 48-48 0-26.5104-21.4896-48-48-48z m42.4288-265.48c-53.9568 13.248-132.752 32.6832-236.3888 58.3088-6.0304 1.664-14.04 3.648-14.04 8.7712v50.9472l256-53.8944V307.2c0-2.256-1.8272-4-5.5712-3.08z" fill="#979797" p-id="4168"></path></svg>