<?xml version="1.0" standalone="no"?><!DOCTYPE svg PUBLIC "-//W3C//DTD SVG 1.1//EN" "http://www.w3.org/Graphics/SVG/1.1/DTD/svg11.dtd"><svg class="icon" width="200px" height="200.00px" viewBox="0 0 1024 1024" version="1.1" xmlns="http://www.w3.org/2000/svg"><path fill="#333333" d="M789.333333 170.666667a64 64 0 0 1 64 64v554.666666a64 64 0 0 1-64 64H234.666667a64 64 0 0 1-64-64V234.666667a64 64 0 0 1 64-64h554.666666z m-234.730666 96h-63.872L336.256 704H298.666667v64h128v-64h-22.528l45.205333-128h146.624l45.205333 128H618.666667v64h128v-64h-37.589334l-154.474666-437.333333zM522.666667 368.426667L573.376 512h-101.418667l50.709334-143.573333z" /></svg>