<?xml version="1.0" standalone="no"?><!DOCTYPE svg PUBLIC "-//W3C//DTD SVG 1.1//EN" "http://www.w3.org/Graphics/SVG/1.1/DTD/svg11.dtd"><svg class="icon" width="200px" height="200.00px" viewBox="0 0 1024 1024" version="1.1" xmlns="http://www.w3.org/2000/svg"><path fill="#333333" d="M934.4 978.432H89.6a46.08 46.08 0 0 1-46.912-46.976 46.08 46.08 0 0 1 46.912-46.912h844.8a46.08 46.08 0 0 1 46.912 46.912 46.08 46.08 0 0 1-46.912 46.976zM512 828.224a332.48 332.48 0 0 1-333.248-333.248V88.32a46.08 46.08 0 0 1 46.976-46.912 46.08 46.08 0 0 1 46.912 46.912v406.72A240.384 240.384 0 0 0 512 734.336a239.36 239.36 0 0 0 239.36-239.36V88.32a46.08 46.08 0 0 1 46.912-46.912 46.08 46.08 0 0 1 46.976 46.912v406.72A333.504 333.504 0 0 1 512 828.224z"  /></svg>