<?xml version="1.0" standalone="no"?><!DOCTYPE svg PUBLIC "-//W3C//DTD SVG 1.1//EN" "http://www.w3.org/Graphics/SVG/1.1/DTD/svg11.dtd"><svg t="1618215994137" class="icon" viewBox="0 0 1024 1024" version="1.1" xmlns="http://www.w3.org/2000/svg" p-id="3266" xmlns:xlink="http://www.w3.org/1999/xlink" width="200" height="200"><defs><style type="text/css"></style></defs><path d="M938.666667 42.666667H85.333333C49.066667 42.666667 21.333333 70.4 21.333333 106.666667v810.666666c0 36.266667 27.733333 64 64 64h853.333334c36.266667 0 64-27.733333 64-64V106.666667c0-36.266667-27.733333-64-64-64z m-185.6 42.666666l123.733333 128h-164.266667l-123.733333-128h164.266667z m-213.333334 0l123.733334 128h-164.266667l-123.733333-128h164.266666z m-213.333333 0l123.733333 128h-164.266666L162.133333 85.333333h164.266667zM64 106.666667c0-12.8 8.533333-21.333333 21.333333-21.333334h27.733334l123.733333 128H64V106.666667z m896 810.666666c0 12.8-8.533333 21.333333-21.333333 21.333334H85.333333c-12.8 0-21.333333-8.533333-21.333333-21.333334V256h896v661.333333z m0-704h-34.133333l-123.733334-128H938.666667c12.8 0 21.333333 8.533333 21.333333 21.333334v106.666666z" fill="#666767" p-id="3267"></path><path d="M426.666667 800c10.666667 0 23.466667-2.133333 34.133333-8.533333L704 650.666667c42.666667-23.466667 42.666667-83.2 0-106.666667l-243.2-140.8c-10.666667-6.4-21.333333-8.533333-34.133333-8.533333-34.133333 0-64 17.066667-64 53.333333v298.666667c0 36.266667 29.866667 53.333333 64 53.333333z m-21.333334-343.466667c0-12.8 10.666667-21.333333 21.333334-21.333333 4.266667 0 8.533333 0 10.666666 2.133333l243.2 140.8c8.533333 6.4 10.666667 14.933333 10.666667 17.066667 0 4.266667 0 12.8-10.666667 17.066667l-243.2 140.8c-4.266667 2.133333-6.4 2.133333-10.666666 2.133333-10.666667 0-21.333333-8.533333-21.333334-21.333333v-277.333334z" fill="#666767" p-id="3268"></path></svg>